<svg xmlns="http://www.w3.org/2000/svg" viewBox="0 0 256 256" width="256" height="256">
  <defs>
    <linearGradient id="g108-1" x1="0%" y1="0%" x2="100%" y2="100%"><stop offset="0%" stop-color="#4ade80"/><stop offset="100%" stop-color="#38bdf8"/></linearGradient>
               <linearGradient id="g108-2" x1="0%" y1="0%" x2="100%" y2="100%"><stop offset="0%" stop-color="#38bdf8"/><stop offset="100%" stop-color="#6366f1"/></linearGradient>
               <linearGradient id="g108-3" x1="0%" y1="0%" x2="100%" y2="100%"><stop offset="0%" stop-color="#6366f1"/><stop offset="100%" stop-color="#4ade80"/></linearGradient>
  </defs>
  <rect width="256" height="256" rx="60" fill="#08090d"/>
  
    <g fill="none" stroke-width="22" stroke-linecap="round" >
      <path d="M116.2 61A68 68 0 0 1 191.9 104.7" stroke="url(#g108-1)"/>
      <path d="M116.2 61A68 68 0 0 1 191.9 104.7" transform="rotate(120 128 128)" stroke="url(#g108-2)"/>
      <path d="M116.2 61A68 68 0 0 1 191.9 104.7" transform="rotate(240 128 128)" stroke="url(#g108-3)"/>
    </g>
  
  <rect x="116" y="116" width="24" height="24" rx="4" fill="none" stroke="#4ade80" stroke-width="2"/>
              <rect x="122" y="122" width="12" height="12" rx="2" fill="#38bdf8" opacity="0.8"/>
              <circle cx="128" cy="128" r="2.5" fill="#ffffff"/>
</svg>