<svg xmlns="http://www.w3.org/2000/svg" viewBox="0 0 256 256" width="256" height="256">
  <defs>
    
      <linearGradient id="g4-a" x1="0%" y1="0%" x2="100%" y2="100%">
        <stop offset="0%" stop-color="#f97316"/><stop offset="100%" stop-color="#ea580c"/>
      </linearGradient>
      <linearGradient id="g4-b" x1="0%" y1="0%" x2="100%" y2="100%">
        <stop offset="0%" stop-color="#fcd34d"/><stop offset="100%" stop-color="#f59e0b"/>
      </linearGradient>
      <linearGradient id="g4-c" x1="0%" y1="0%" x2="100%" y2="100%">
        <stop offset="0%" stop-color="#e2d9cc"/><stop offset="100%" stop-color="#a89f91"/>
      </linearGradient>
    
  </defs>
  <rect width="256" height="256" rx="60" fill="#141210"/>
  <g fill="none" stroke-width="22" stroke-linecap="round">
    <path d="M116.2 61A68 68 0 0 1 191.9 104.7" stroke="url(#g4-a)" />
    <path d="M116.2 61A68 68 0 0 1 191.9 104.7" stroke="url(#g4-b)" transform="rotate(120 128 128)"/>
    <path d="M116.2 61A68 68 0 0 1 191.9 104.7" stroke="url(#g4-c)" transform="rotate(240 128 128)"/>
  </g>
  
      <!-- 4-Point AI Spark Asterisk -->
      <path d="M128 116 L128 140 M116 128 L140 128 M120 120 L136 136 M120 136 L136 120" stroke="#f97316" stroke-width="4" stroke-linecap="round"/>
      <circle cx="128" cy="128" r="4" fill="#ffffff"/>
    
</svg>