<svg xmlns="http://www.w3.org/2000/svg" viewBox="0 0 256 256" width="256" height="256">
  <defs>
    
      <linearGradient id="m14-a" x1="0%" y1="0%" x2="100%" y2="100%">
        <stop offset="0%" stop-color="#f472b6"/><stop offset="100%" stop-color="#c084fc"/>
      </linearGradient>
      <linearGradient id="m14-b" x1="0%" y1="0%" x2="100%" y2="100%">
        <stop offset="0%" stop-color="#c084fc"/><stop offset="100%" stop-color="#38bdf8"/>
      </linearGradient>
      <linearGradient id="m14-c" x1="0%" y1="0%" x2="100%" y2="100%">
        <stop offset="0%" stop-color="#38bdf8"/><stop offset="100%" stop-color="#f472b6"/>
      </linearGradient>
      <radialGradient id="m14-glow" cx="50%" cy="50%" r="50%">
        <stop offset="0%" stop-color="#c084fc" stop-opacity="0.6"/>
        <stop offset="100%" stop-color="#0c0d14" stop-opacity="0"/>
      </radialGradient>
    
  </defs>
  <rect width="256" height="256" rx="60" fill="#0c0d14"/>
  
      <g fill="none" stroke-width="26" stroke-linecap="round">
        <path d="M116.2 61A68 68 0 0 1 191.9 104.7" stroke="url(#m14-a)"/>
        <path d="M116.2 61A68 68 0 0 1 191.9 104.7" transform="rotate(120 128 128)" stroke="url(#m14-b)"/>
        <path d="M116.2 61A68 68 0 0 1 191.9 104.7" transform="rotate(240 128 128)" stroke="url(#m14-c)"/>
      </g>
    
  
      <circle cx="128" cy="128" r="28" fill="url(#m14-glow)"/>
      <circle cx="128" cy="128" r="11" fill="#ffffff" opacity="0.9"/>
      <!-- Soft Pastel Quad Spark inside -->
      <path d="M 128 120 Q 128 128 136 128 Q 128 128 128 136 Q 128 128 120 128 Q 128 128 128 120 Z" fill="#c084fc"/>
    
</svg>