<svg xmlns="http://www.w3.org/2000/svg" viewBox="0 0 256 256" width="256" height="256">
  <defs>
    
      <linearGradient id="m11-a" x1="0%" y1="0%" x2="100%" y2="100%">
        <stop offset="0%" stop-color="#f43f5e"/><stop offset="100%" stop-color="#9333ea"/>
      </linearGradient>
      <linearGradient id="m11-b" x1="0%" y1="0%" x2="100%" y2="100%">
        <stop offset="0%" stop-color="#9333ea"/><stop offset="100%" stop-color="#06b6d4"/>
      </linearGradient>
      <linearGradient id="m11-c" x1="0%" y1="0%" x2="100%" y2="100%">
        <stop offset="0%" stop-color="#06b6d4"/><stop offset="100%" stop-color="#f43f5e"/>
      </linearGradient>
    
  </defs>
  <rect width="256" height="256" rx="60" fill="#08080c"/>
  
      <g fill="none" stroke-width="24" stroke-linecap="round">
        <path d="M116.2 61A68 68 0 0 1 191.9 104.7" stroke="url(#m11-a)"/>
        <path d="M116.2 61A68 68 0 0 1 191.9 104.7" transform="rotate(120 128 128)" stroke="url(#m11-b)"/>
        <path d="M116.2 61A68 68 0 0 1 191.9 104.7" transform="rotate(240 128 128)" stroke="url(#m11-c)"/>
      </g>
    
  
      <!-- 3-Way Tri-Color Interlocking Delta Ring -->
      <polygon points="128,112 144,140 112,140" fill="none" stroke="#ffffff" stroke-width="3" stroke-linejoin="round"/>
      <circle cx="128" cy="112" r="4.5" fill="#f43f5e"/>
      <circle cx="144" cy="140" r="4.5" fill="#9333ea"/>
      <circle cx="112" cy="140" r="4.5" fill="#06b6d4"/>
      <circle cx="128" cy="131" r="5" fill="#ffffff"/>
    
</svg>