<svg xmlns="http://www.w3.org/2000/svg" width="714" height="450" viewBox="0 0 714 450" font-family="'OpenAI Sans', 'Segoe UI', sans-serif"><rect width="714" height="450" fill="#000"/><line x1="52" y1="330" x2="706" y2="330" stroke="#26272b" stroke-width="1"/><text x="44" y="334" text-anchor="end" font-size="11" fill="#9ca3af">0%</text><line x1="52" y1="263.8" x2="706" y2="263.8" stroke="#26272b" stroke-width="1"/><text x="44" y="267.8" text-anchor="end" font-size="11" fill="#9ca3af">25%</text><line x1="52" y1="197.5" x2="706" y2="197.5" stroke="#26272b" stroke-width="1"/><text x="44" y="201.5" text-anchor="end" font-size="11" fill="#9ca3af">50%</text><line x1="52" y1="131.2" x2="706" y2="131.2" stroke="#26272b" stroke-width="1"/><text x="44" y="135.2" text-anchor="end" font-size="11" fill="#9ca3af">75%</text><line x1="52" y1="65" x2="706" y2="65" stroke="#26272b" stroke-width="1"/><text x="44" y="69" text-anchor="end" font-size="11" fill="#9ca3af">100%</text><text transform="translate(14,198) rotate(-90)" text-anchor="middle" font-size="11" fill="#9ca3af">Score</text><path d="M59.2,88.5 a2,2 0 0 1 2,-2 h47 a2,2 0 0 1 2,2 v241.5 h-51 Z" fill="#eaf1fe"/><text x="84.7" y="78.5" text-anchor="middle" font-size="12" fill="#fff">91.9%</text><text transform="translate(84.7,344) rotate(-32)" text-anchor="end" font-size="11.5" fill="#fff">GPT-5.6 Sol Ultra</text><path d="M124.6,93.8 a2,2 0 0 1 2,-2 h47 a2,2 0 0 1 2,2 v236.2 h-51 Z" fill="#f5a623"/><text x="150.1" y="83.8" text-anchor="middle" font-size="12" fill="#fff">89.9%</text><text transform="translate(150.1,344) rotate(-32)" text-anchor="end" font-size="11.5" fill="#fff">Mixdog (Fable 5 High)</text><path d="M190,96.7 a2,2 0 0 1 2,-2 h47 a2,2 0 0 1 2,2 v233.3 h-51 Z" fill="#eaf1fe"/><text x="215.5" y="86.7" text-anchor="middle" font-size="12" fill="#fff">88.8%</text><text transform="translate(215.5,344) rotate(-32)" text-anchor="end" font-size="11.5" fill="#fff">GPT-5.6 Sol</text><path d="M255.4,98.8 a2,2 0 0 1 2,-2 h47 a2,2 0 0 1 2,2 v231.2 h-51 Z" fill="#47484f"/><text x="280.9" y="88.8" text-anchor="middle" font-size="12" fill="#fff">88%</text><text transform="translate(280.9,344) rotate(-32)" text-anchor="end" font-size="11.5" fill="#fff">Claude Mythos 5</text><path d="M320.8,108.6 a2,2 0 0 1 2,-2 h47 a2,2 0 0 1 2,2 v221.4 h-51 Z" fill="#cedffe"/><text x="346.3" y="98.6" text-anchor="middle" font-size="12" fill="#fff">84.3%</text><text transform="translate(346.3,344) rotate(-32)" text-anchor="end" font-size="11.5" fill="#fff">GPT-5.6 Terra</text><path d="M386.2,108.6 a2,2 0 0 1 2,-2 h47 a2,2 0 0 1 2,2 v221.4 h-51 Z" fill="#47484f"/><text x="411.7" y="98.6" text-anchor="middle" font-size="12" fill="#fff">84.3%</text><text transform="translate(411.7,344) rotate(-32)" text-anchor="end" font-size="11.5" fill="#fff">Claude Fable 5</text><path d="M451.6,111 a2,2 0 0 1 2,-2 h47 a2,2 0 0 1 2,2 v219 h-51 Z" fill="#5477c4"/><text x="477.1" y="101" text-anchor="middle" font-size="12" fill="#fff">83.4%</text><text transform="translate(477.1,344) rotate(-32)" text-anchor="end" font-size="11.5" fill="#fff">GPT-5.5</text><path d="M517,113.4 a2,2 0 0 1 2,-2 h47 a2,2 0 0 1 2,2 v216.6 h-51 Z" fill="#a3befa"/><text x="542.5" y="103.4" text-anchor="middle" font-size="12" fill="#fff">82.5%</text><text transform="translate(542.5,344) rotate(-32)" text-anchor="end" font-size="11.5" fill="#fff">GPT-5.6 Luna</text><path d="M582.4,122.9 a2,2 0 0 1 2,-2 h47 a2,2 0 0 1 2,2 v207.1 h-51 Z" fill="#47484f"/><text x="607.9" y="112.9" text-anchor="middle" font-size="12" fill="#fff">78.9%</text><text transform="translate(607.9,344) rotate(-32)" text-anchor="end" font-size="11.5" fill="#fff">Claude Opus 4.8</text><path d="M647.8,144.6 a2,2 0 0 1 2,-2 h47 a2,2 0 0 1 2,2 v185.4 h-51 Z" fill="#47484f"/><text x="673.3" y="134.6" text-anchor="middle" font-size="12" fill="#fff">70.7%</text><text transform="translate(673.3,344) rotate(-32)" text-anchor="end" font-size="11.5" fill="#fff">Gemini 3.1 Pro Preview</text></svg>


